# Blender 3.6.5
# www.blender.org
mtllib Cover_Sheet_Uncut.mtl
o mesh2
v 0.029316 0.031931 0.012143
v 0.029818 0.031931 0.010853
v 0.028758 0.031931 0.013410
v 0.030263 0.031931 0.009542
v 0.030650 0.031931 0.008213
v 0.031460 0.031931 0.004142
v 0.031611 0.031931 0.002766
v 0.010853 0.031931 0.029818
v 0.012143 0.031931 0.029316
v 0.013410 0.031931 0.028758
v 0.018200 0.031931 0.025993
v 0.019317 0.031931 0.025174
v 0.020397 0.031931 0.024308
v 0.021437 0.031931 0.023395
v 0.030979 0.031931 0.006868
v 0.031249 0.031931 0.005510
v -0.022437 0.031931 0.022437
v -0.021437 0.031931 0.023395
v -0.020397 0.031931 0.024308
v -0.019317 0.031931 0.025174
v -0.018200 0.031931 0.025993
v -0.017049 0.031931 0.026762
v -0.015866 0.031931 0.027480
v -0.008213 0.031931 0.030650
v -0.006868 0.031931 0.030979
v -0.005510 0.031931 0.031249
v -0.004142 0.031931 0.031460
v -0.002766 0.031931 0.031611
v -0.001384 0.031931 0.031701
v 0.000000 0.031931 0.031731
v 0.001384 0.031931 0.031701
v 0.002766 0.031931 0.031611
v 0.004142 0.031931 0.031460
v 0.008213 0.031931 0.030650
v 0.009542 0.031931 0.030263
v 0.014652 0.031931 0.028146
v 0.015866 0.031931 0.027480
v 0.022437 0.031931 0.022437
v 0.023395 0.031931 0.021437
v 0.024308 0.031931 0.020397
v 0.025174 0.031931 0.019317
v 0.027480 0.031931 0.015866
v 0.028146 0.031931 0.014652
v -0.013410 0.031931 0.028758
v -0.012143 0.031931 0.029316
v -0.010853 0.031931 0.029818
v -0.009542 0.031931 0.030263
v 0.005510 0.031931 0.031249
v 0.006868 0.031931 0.030979
v 0.017049 0.031931 0.026762
v 0.025993 0.031931 0.018200
v 0.026762 0.031931 0.017049
v 0.031701 0.031931 0.001384
v -0.031611 0.031931 0.002766
v -0.031460 0.031931 0.004142
v -0.031249 0.031931 0.005510
v -0.030979 0.031931 0.006868
v -0.029818 0.031931 0.010853
v -0.029316 0.031931 0.012143
v -0.014652 0.031931 0.028146
v 0.031731 0.031931 -0.000000
v -0.030650 0.031931 0.008213
v -0.030263 0.031931 0.009542
v -0.028758 0.031931 0.013410
v -0.028146 0.031931 0.014652
v -0.027480 0.031931 0.015866
v -0.026762 0.031931 0.017049
v -0.025993 0.031931 0.018200
v -0.025174 0.031931 0.019317
v -0.024308 0.031931 0.020397
v -0.023395 0.031931 0.021437
v -0.031731 0.031931 -0.000000
v -0.031701 0.031931 0.001384
v 0.081671 -0.109512 0.000000
v 0.081593 -0.109512 0.003562
v 0.081360 -0.109512 0.007118
v 0.080973 -0.109512 0.010660
v 0.080430 -0.109512 0.014182
v 0.079735 -0.109512 0.017677
v 0.078888 -0.109512 0.021138
v 0.077891 -0.109512 0.024559
v 0.076746 -0.109512 0.027933
v 0.075454 -0.109512 0.031254
v 0.074019 -0.109512 0.034516
v 0.072443 -0.109512 0.037712
v 0.070729 -0.109512 0.040836
v 0.068881 -0.109512 0.043882
v 0.066901 -0.109512 0.046845
v 0.064794 -0.109512 0.049718
v 0.062564 -0.109512 0.052497
v 0.060214 -0.109512 0.055176
v 0.057750 -0.109512 0.057750
v 0.055176 -0.109512 0.060214
v 0.052497 -0.109512 0.062564
v 0.049718 -0.109512 0.064794
v 0.046845 -0.109512 0.066901
v 0.043882 -0.109512 0.068881
v 0.040836 -0.109512 0.070729
v 0.037712 -0.109512 0.072443
v 0.034516 -0.109512 0.074019
v 0.031254 -0.109512 0.075454
v 0.027933 -0.109512 0.076746
v 0.024559 -0.109512 0.077891
v 0.021138 -0.109512 0.078888
v 0.017677 -0.109512 0.079735
v 0.014182 -0.109512 0.080430
v 0.010660 -0.109512 0.080973
v 0.007118 -0.109512 0.081360
v 0.003562 -0.109512 0.081594
v 0.000000 -0.109512 0.081671
v -0.003562 -0.109512 0.081594
v -0.007118 -0.109512 0.081360
v -0.010660 -0.109512 0.080973
v -0.014182 -0.109512 0.080430
v -0.017677 -0.109512 0.079735
v -0.021138 -0.109512 0.078888
v -0.024559 -0.109512 0.077891
v -0.027933 -0.109512 0.076746
v -0.031254 -0.109512 0.075454
v -0.034516 -0.109512 0.074019
v -0.037712 -0.109512 0.072443
v -0.040836 -0.109512 0.070729
v -0.043882 -0.109512 0.068881
v -0.046845 -0.109512 0.066901
v -0.049718 -0.109512 0.064794
v -0.052497 -0.109512 0.062564
v -0.055176 -0.109512 0.060214
v -0.057750 -0.109512 0.057750
v -0.060214 -0.109512 0.055176
v -0.062564 -0.109512 0.052497
v -0.064794 -0.109512 0.049718
v -0.066901 -0.109512 0.046845
v -0.068881 -0.109512 0.043882
v -0.070729 -0.109512 0.040836
v -0.072443 -0.109512 0.037712
v -0.074019 -0.109512 0.034516
v -0.075454 -0.109512 0.031254
v -0.076746 -0.109512 0.027933
v -0.077891 -0.109512 0.024559
v -0.078888 -0.109512 0.021138
v -0.079735 -0.109512 0.017677
v -0.080430 -0.109512 0.014182
v -0.080973 -0.109512 0.010660
v -0.081360 -0.109512 0.007118
v -0.081593 -0.109512 0.003562
v -0.081671 -0.109512 0.000000
vn 0.9430 0.3329 -0.0000
vn 0.9421 0.3329 0.0411
vn 0.9421 0.3329 0.0412
vn 0.9394 0.3329 0.0822
vn 0.9349 0.3329 0.1231
vn 0.9286 0.3329 0.1637
vn 0.9286 0.3329 0.1638
vn 0.9206 0.3329 0.2041
vn 0.9108 0.3329 0.2441
vn 0.8993 0.3329 0.2835
vn 0.8861 0.3329 0.3225
vn 0.8712 0.3329 0.3609
vn 0.8546 0.3329 0.3985
vn 0.8364 0.3329 0.4354
vn 0.8166 0.3329 0.4715
vn 0.7953 0.3329 0.5066
vn 0.7724 0.3329 0.5408
vn 0.7481 0.3329 0.5740
vn 0.7223 0.3329 0.6061
vn 0.7224 0.3329 0.6061
vn 0.6952 0.3329 0.6371
vn 0.6668 0.3329 0.6668
vn 0.6371 0.3329 0.6952
vn 0.6061 0.3329 0.7224
vn 0.6061 0.3329 0.7223
vn 0.5740 0.3329 0.7481
vn 0.5408 0.3329 0.7724
vn 0.5409 0.3329 0.7724
vn 0.5066 0.3329 0.7953
vn 0.4715 0.3329 0.8166
vn 0.4354 0.3329 0.8364
vn 0.3985 0.3329 0.8546
vn 0.3609 0.3329 0.8712
vn 0.3225 0.3329 0.8861
vn 0.2836 0.3329 0.8993
vn 0.2835 0.3329 0.8993
vn 0.2441 0.3329 0.9108
vn 0.2041 0.3329 0.9206
vn 0.1638 0.3329 0.9286
vn 0.1637 0.3329 0.9286
vn 0.1231 0.3329 0.9349
vn 0.0822 0.3329 0.9394
vn 0.0412 0.3329 0.9421
vn 0.0411 0.3329 0.9421
vn -0.0000 0.3329 0.9430
vn -0.0411 0.3329 0.9421
vn -0.0412 0.3329 0.9421
vn -0.0822 0.3329 0.9394
vn -0.1231 0.3329 0.9349
vn -0.1637 0.3329 0.9286
vn -0.1638 0.3329 0.9286
vn -0.2041 0.3329 0.9206
vn -0.2441 0.3329 0.9108
vn -0.2835 0.3329 0.8993
vn -0.3225 0.3329 0.8861
vn -0.3609 0.3329 0.8712
vn -0.3985 0.3329 0.8546
vn -0.4354 0.3329 0.8364
vn -0.4715 0.3329 0.8166
vn -0.5066 0.3329 0.7953
vn -0.5409 0.3329 0.7724
vn -0.5408 0.3329 0.7724
vn -0.5740 0.3329 0.7481
vn -0.6061 0.3329 0.7223
vn -0.6061 0.3329 0.7224
vn -0.6371 0.3329 0.6952
vn -0.6668 0.3329 0.6668
vn -0.6952 0.3329 0.6371
vn -0.7224 0.3329 0.6061
vn -0.7223 0.3329 0.6061
vn -0.7481 0.3329 0.5740
vn -0.7724 0.3329 0.5408
vn -0.7724 0.3329 0.5409
vn -0.7953 0.3329 0.5066
vn -0.8166 0.3329 0.4715
vn -0.8364 0.3329 0.4354
vn -0.8546 0.3329 0.3985
vn -0.8712 0.3329 0.3609
vn -0.8861 0.3329 0.3225
vn -0.8993 0.3329 0.2835
vn -0.9108 0.3329 0.2441
vn -0.9206 0.3329 0.2041
vn -0.9286 0.3329 0.1638
vn -0.9286 0.3329 0.1637
vn -0.9349 0.3329 0.1231
vn -0.9394 0.3329 0.0822
vn -0.9421 0.3329 0.0412
vn -0.9421 0.3329 0.0411
vn -0.9430 0.3329 -0.0000
vn -0.8993 0.3329 0.2836
vn -0.7953 0.3329 0.5067
vn -0.6952 0.3329 0.6370
vn -0.6370 0.3329 0.6952
vn -0.5067 0.3329 0.7953
vn -0.2836 0.3329 0.8993
vn 0.5067 0.3329 0.7953
vn 0.6370 0.3329 0.6952
vn 0.6952 0.3329 0.6370
vn 0.7724 0.3329 0.5409
vn 0.7953 0.3329 0.5067
vn 0.8993 0.3329 0.2836
s 0
usemtl 0.615686_0.811765_0.929412_0.000000_0.002
f 74//1 61//1 53//2
f 75//3 53//3 7//4
f 76//4 7//4 6//5
f 77//5 6//5 16//6
f 78//7 16//7 15//8
f 79//8 15//8 5//9
f 80//9 5//9 4//10
f 81//10 4//10 2//11
f 82//11 2//11 1//12
f 83//12 1//12 3//13
f 84//13 3//13 43//14
f 85//14 43//14 42//15
f 86//15 42//15 52//16
f 87//16 52//16 51//17
f 88//17 51//17 41//18
f 89//18 41//18 40//19
f 90//20 40//20 39//21
f 91//21 39//21 38//22
f 92//22 38//22 14//23
f 93//23 14//23 13//24
f 94//25 13//25 12//26
f 95//26 12//26 11//27
f 96//28 11//28 50//29
f 97//29 50//29 37//30
f 98//30 37//30 36//31
f 99//31 36//31 10//32
f 100//32 10//32 9//33
f 101//33 9//33 8//34
f 102//34 8//34 35//35
f 103//36 35//36 34//37
f 104//37 34//37 49//38
f 105//38 49//38 48//39
f 106//40 48//40 33//41
f 107//41 33//41 32//42
f 108//42 32//42 31//43
f 109//44 31//44 30//45
f 110//45 30//45 29//46
f 111//47 29//47 28//48
f 112//48 28//48 27//49
f 113//49 27//49 26//50
f 114//51 26//51 25//52
f 115//52 25//52 24//53
f 116//53 24//53 47//54
f 117//54 47//54 46//55
f 118//55 46//55 45//56
f 119//56 45//56 44//57
f 120//57 44//57 60//58
f 121//58 60//58 23//59
f 122//59 23//59 22//60
f 123//60 22//60 21//61
f 124//62 21//62 20//63
f 125//63 20//63 19//64
f 126//65 19//65 18//66
f 127//66 18//66 17//67
f 128//67 17//67 71//68
f 129//68 71//68 70//69
f 130//70 70//70 69//71
f 131//71 69//71 68//72
f 132//73 68//73 67//74
f 133//74 67//74 66//75
f 134//75 66//75 65//76
f 135//76 65//76 64//77
f 136//77 64//77 59//78
f 137//78 59//78 58//79
f 138//79 58//79 63//80
f 139//80 63//80 62//81
f 140//81 62//81 57//82
f 141//82 57//82 56//83
f 142//84 56//84 55//85
f 143//85 55//85 54//86
f 144//86 54//86 73//87
f 145//88 73//88 72//89
f 72//89 146//89 145//88
f 73//87 145//87 144//86
f 54//86 144//86 143//85
f 55//85 143//85 142//84
f 56//84 142//84 141//82
f 57//82 141//82 140//81
f 62//81 140//81 139//80
f 63//90 139//90 138//79
f 58//79 138//79 137//78
f 59//78 137//78 136//77
f 64//77 136//77 135//76
f 65//76 135//76 134//75
f 66//75 134//75 133//74
f 67//91 133//91 132//73
f 68//73 132//73 131//71
f 69//71 131//71 130//70
f 70//70 130//70 129//92
f 71//92 129//92 128//67
f 17//67 128//67 127//93
f 18//93 127//93 126//64
f 19//64 126//64 125//63
f 20//63 125//63 124//61
f 21//61 124//61 123//94
f 22//60 123//60 122//59
f 23//59 122//59 121//58
f 60//58 121//58 120//57
f 44//57 120//57 119//56
f 45//56 119//56 118//55
f 46//55 118//55 117//95
f 47//54 117//54 116//53
f 24//53 116//53 115//52
f 25//52 115//52 114//50
f 26//50 114//50 113//49
f 27//49 113//49 112//48
f 28//48 112//48 111//47
f 29//46 111//46 110//45
f 30//45 110//45 109//44
f 31//43 109//43 108//42
f 32//42 108//42 107//41
f 33//41 107//41 106//40
f 48//40 106//40 105//38
f 49//38 105//38 104//37
f 34//37 104//37 103//36
f 35//35 103//35 102//34
f 8//34 102//34 101//33
f 9//33 101//33 100//32
f 10//32 100//32 99//31
f 36//31 99//31 98//30
f 37//30 98//30 97//29
f 50//96 97//96 96//28
f 11//28 96//28 95//26
f 12//26 95//26 94//25
f 13//25 94//25 93//97
f 14//97 93//97 92//22
f 38//22 92//22 91//98
f 39//98 91//98 90//19
f 40//19 90//19 89//18
f 41//18 89//18 88//99
f 51//99 88//99 87//100
f 52//16 87//16 86//15
f 42//15 86//15 85//14
f 43//14 85//14 84//13
f 3//13 84//13 83//12
f 1//12 83//12 82//11
f 2//11 82//11 81//101
f 4//10 81//10 80//9
f 5//9 80//9 79//8
f 15//8 79//8 78//6
f 16//6 78//6 77//5
f 6//5 77//5 76//4
f 7//4 76//4 75//3
f 53//2 75//2 74//1
